# xmcd
#
# Track frame offsets: 
#        150
#        22911
#        34926
#        54771
#        74940
#        92355
#        109932
#        130101
#        146868
#        163284
#        178026
#        196440
#        213207
#        230865
#
# Disc length: 3476 seconds
#
# Revision: 0
# Processed by: cddbd v1.5.1PL2 Copyright (c) Steve Scherf et al.
# Submitted via: ExactAudioCopy v0.95b4
#
DISCID=cf0d920e
DTITLE=Veda Love - Make Me Yours Tonight
DYEAR=2000
DGENRE=Blues
TTITLE0=Make Me Yours Tonight
TTITLE1=Standing on Shaky Ground
TTITLE2=I Forgot to Remember
TTITLE3=One Sided Affair
TTITLE4=Never Say No
TTITLE5=Rock Me Baby
TTITLE6=I Can't Believe It
TTITLE7=Southern Fried Gumbo Funk
TTITLE8=When You Need Someone
TTITLE9=How Much Do You Want It?
TTITLE10=Groove Attack
TTITLE11=Trapped
TTITLE12=When the Saints
TTITLE13=All the Way
EXTD=
EXTT0=
EXTT1=
EXTT2=
EXTT3=
EXTT4=
EXTT5=
EXTT6=
EXTT7=
EXTT8=
EXTT9=
EXTT10=
EXTT11=
EXTT12=
EXTT13=
PLAYORDER=
